<svg width="130" height="131" viewBox="0 0 130 131" fill="none" xmlns="http://www.w3.org/2000/svg">
<path opacity="0.2" d="M111.719 65.5C111.719 74.8112 108.979 83.9133 103.845 91.6552C98.7117 99.3972 91.4152 105.431 82.8785 108.995C74.3417 112.558 64.9482 113.49 55.8856 111.674C46.8231 109.857 38.4986 105.373 31.9648 98.7893C25.4311 92.2053 20.9816 83.8168 19.1789 74.6845C17.3763 65.5522 18.3015 56.0864 21.8375 47.484C25.3735 38.8816 31.3616 31.529 39.0444 26.356C46.7273 21.183 55.7599 18.4219 65 18.4219C77.3864 18.4354 89.2617 23.3998 98.0203 32.2257C106.779 41.0516 111.705 53.0183 111.719 65.5Z" fill="#2A98C1"/>
<path d="M113.633 76.8039C113.761 77.3261 113.785 77.8684 113.704 78.4C113.624 78.9315 113.44 79.4419 113.164 79.9019C112.887 80.3618 112.524 80.7625 112.094 81.0808C111.664 81.3992 111.176 81.6291 110.657 81.7574L98.1449 84.8277L101.425 97.1652C101.564 97.6847 101.599 98.2265 101.529 98.7597C101.46 99.2929 101.286 99.807 101.019 100.273C100.752 100.738 100.397 101.147 99.9736 101.474C99.5501 101.801 99.0667 102.041 98.5512 102.18C98.2091 102.279 97.8559 102.334 97.5 102.344C96.6063 102.343 95.7378 102.045 95.0291 101.497C94.3204 100.948 93.8109 100.179 93.5797 99.3093L89.6594 84.5718L69.0625 72.5925V96.5563L80.0617 107.635C80.4392 108.015 80.7386 108.467 80.9428 108.964C81.1471 109.461 81.2523 109.993 81.2523 110.531C81.2523 111.069 81.1471 111.602 80.9428 112.099C80.7386 112.596 80.4392 113.047 80.0617 113.428C79.6843 113.808 79.2362 114.11 78.743 114.316C78.2498 114.521 77.7213 114.627 77.1875 114.627C76.6537 114.627 76.1251 114.521 75.632 114.316C75.1388 114.11 74.6907 113.808 74.3133 113.428L65 104.038L55.6867 113.428C55.3093 113.808 54.8612 114.11 54.368 114.316C53.8748 114.521 53.3463 114.627 52.8125 114.627C52.2787 114.627 51.7501 114.521 51.257 114.316C50.7638 114.11 50.3157 113.808 49.9383 113.428C49.5608 113.047 49.2614 112.596 49.0571 112.099C48.8529 111.602 48.7477 111.069 48.7477 110.531C48.7477 109.993 48.8529 109.461 49.0571 108.964C49.2614 108.467 49.5608 108.015 49.9383 107.635L60.9375 96.5563V72.5925L40.3457 84.5718L36.4254 99.3093C36.1939 100.18 35.6837 100.949 34.9739 101.498C34.2642 102.047 33.3945 102.344 32.5 102.344C32.1435 102.343 31.7886 102.297 31.4437 102.206C30.9282 102.067 30.4448 101.827 30.0213 101.499C29.5978 101.172 29.2424 100.764 28.9755 100.298C28.7086 99.8326 28.5354 99.3185 28.4657 98.7853C28.396 98.2521 28.4313 97.7103 28.5695 97.1908L31.85 84.8533L19.3375 81.783C18.291 81.5238 17.3896 80.8562 16.8315 79.9273C16.2735 78.9983 16.1045 77.884 16.3617 76.8295C16.6189 75.775 17.2814 74.8667 18.2032 74.3043C19.1251 73.7419 20.2309 73.5716 21.2773 73.8309L36.2324 77.5306L56.875 65.5001L36.2375 53.4952L21.2824 57.1949C20.9651 57.274 20.6394 57.3136 20.3125 57.3126C19.3192 57.3133 18.36 56.9472 17.6163 56.2836C16.8727 55.6199 16.3961 54.7048 16.2767 53.7111C16.1572 52.7173 16.4032 51.714 16.9682 50.8906C17.5331 50.0673 18.3778 49.4811 19.3426 49.2428L31.8551 46.1725L28.5746 33.8093C28.2958 32.7602 28.442 31.6425 28.981 30.7021C29.52 29.7616 30.4077 29.0754 31.4488 28.7945C32.4899 28.5136 33.5991 28.6609 34.5324 29.204C35.4657 29.7472 36.1466 30.6417 36.4254 31.6908L40.3457 46.4283L60.9375 58.4077V34.4439L49.9383 23.3652C49.176 22.597 48.7477 21.5552 48.7477 20.4688C48.7477 19.9309 48.8529 19.3983 49.0571 18.9013C49.2614 18.4044 49.5608 17.9529 49.9383 17.5725C50.3157 17.1921 50.7638 16.8904 51.257 16.6846C51.7501 16.4787 52.2787 16.3728 52.8125 16.3728C53.8905 16.3728 54.9244 16.8043 55.6867 17.5725L65 26.9625L74.3133 17.5725C75.0756 16.8043 76.1094 16.3728 77.1875 16.3728C78.2655 16.3728 79.2994 16.8043 80.0617 17.5725C80.824 18.3407 81.2523 19.3825 81.2523 20.4688C81.2523 21.5552 80.824 22.597 80.0617 23.3652L69.0625 34.4439V58.4077L89.6543 46.4283L93.5746 31.6908C93.8534 30.6417 94.5343 29.7472 95.4676 29.204C96.4009 28.6609 97.5101 28.5136 98.5512 28.7945C99.5922 29.0754 100.48 29.7616 101.019 30.7021C101.558 31.6425 101.704 32.7602 101.425 33.8093L98.1449 46.1469L110.657 49.2172C111.649 49.4306 112.526 50.01 113.115 50.8416C113.704 51.6732 113.964 52.6969 113.842 53.7113C113.721 54.7258 113.227 55.6578 112.458 56.3242C111.689 56.9906 110.701 57.3431 109.687 57.3126C109.361 57.3136 109.035 57.274 108.718 57.1949L93.7625 53.4952L73.125 65.5001L93.7625 77.505L108.718 73.8053C109.236 73.6768 109.774 73.6525 110.301 73.7337C110.829 73.8149 111.335 74 111.792 74.2785C112.248 74.5569 112.646 74.9233 112.962 75.3566C113.278 75.79 113.506 76.2818 113.633 76.8039Z" fill="#42B0D9"/>
</svg>
