<svg width="105" height="105" viewBox="0 0 105 105" fill="none" xmlns="http://www.w3.org/2000/svg">
<path opacity="0.2" d="M19.6875 29.5312H45.9375V75.4687H19.6875V29.5312ZM78.1922 15.7458C78.1049 15.3221 77.9346 14.9198 77.6912 14.5621C77.4477 14.2044 77.136 13.8984 76.7738 13.6617C76.4117 13.425 76.0063 13.2622 75.581 13.1827C75.1557 13.1033 74.7189 13.1087 74.2957 13.1988L55.0963 17.3003C54.2427 17.4889 53.4984 18.0075 53.0258 18.7429C52.5533 19.4783 52.3908 20.3708 52.5738 21.2255L57.3357 43.8867L82.9541 38.3824L78.1922 15.7458Z" fill="#42B0D9"/>
<path d="M95.0127 79.7958L81.3996 15.0732C81.2235 14.2268 80.882 13.4235 80.3945 12.7095C79.9071 11.9955 79.2834 11.3849 78.5593 10.9127C77.8351 10.4405 77.0248 10.116 76.1749 9.95786C75.3249 9.79975 74.4522 9.81112 73.6066 9.99134L54.4072 14.1175C52.709 14.4894 51.2262 15.5167 50.2815 16.9761C49.3367 18.4354 49.0064 20.2088 49.3623 21.9105L62.9754 86.6331C63.2788 88.1098 64.0813 89.437 65.248 90.3916C66.4147 91.3462 67.8745 91.87 69.382 91.8749C69.848 91.8743 70.3127 91.8248 70.7684 91.7273L89.9678 87.6011C91.6681 87.2284 93.1523 86.199 94.0972 84.7371C95.0421 83.2752 95.3711 81.4992 95.0127 79.7958ZM55.7812 20.5693C55.7812 20.5447 55.7812 20.5324 55.7812 20.5324L74.9766 16.4308L76.3424 22.94L57.1471 27.0702L55.7812 20.5693ZM58.4965 33.4769L77.7 29.3548L79.0699 35.8763L59.8828 40.0025L58.4965 33.4769ZM61.2199 46.4255L80.4234 42.2993L85.8785 68.2376L66.675 72.3638L61.2199 46.4255ZM88.5937 81.1863L69.3984 85.2878L68.0326 78.7786L87.2279 74.6484L88.5937 81.1493C88.5937 81.174 88.5937 81.1863 88.5937 81.1863ZM42.6562 13.1249H22.9687C21.2283 13.1249 19.5591 13.8163 18.3284 15.047C17.0977 16.2777 16.4063 17.9469 16.4062 19.6874V85.3124C16.4063 87.0529 17.0977 88.7221 18.3284 89.9528C19.5591 91.1835 21.2283 91.8749 22.9687 91.8749H42.6562C44.3967 91.8749 46.0659 91.1835 47.2966 89.9528C48.5273 88.7221 49.2187 87.0529 49.2187 85.3124V19.6874C49.2187 17.9469 48.5273 16.2777 47.2966 15.047C46.0659 13.8163 44.3967 13.1249 42.6562 13.1249ZM22.9687 19.6874H42.6562V26.2499H22.9687V19.6874ZM22.9687 32.8124H42.6562V72.1874H22.9687V32.8124ZM42.6562 85.3124H22.9687V78.7499H42.6562V85.3124Z" fill="#42B0D9"/>
</svg>
