<svg width="25" height="25" viewBox="0 0 25 25" fill="none" xmlns="http://www.w3.org/2000/svg">
<path opacity="0.2" d="M19.8022 9.09204V13.592C19.8026 15.1714 19.3496 16.7176 18.497 18.0471C17.6445 19.3766 16.4283 20.4334 14.9929 21.092H8.11162C6.67619 20.4334 5.45997 19.3766 4.60745 18.0471C3.75493 16.7176 3.30192 15.1714 3.30225 13.592V9.09204H19.8022Z" fill="#42B0D9"/>
<path d="M7.80225 6.09204V3.09204C7.80225 2.89313 7.88126 2.70236 8.02192 2.56171C8.16257 2.42106 8.35333 2.34204 8.55225 2.34204C8.75116 2.34204 8.94192 2.42106 9.08258 2.56171C9.22323 2.70236 9.30225 2.89313 9.30225 3.09204V6.09204C9.30225 6.29095 9.22323 6.48172 9.08258 6.62237C8.94192 6.76302 8.75116 6.84204 8.55225 6.84204C8.35333 6.84204 8.16257 6.76302 8.02192 6.62237C7.88126 6.48172 7.80225 6.29095 7.80225 6.09204ZM11.5522 6.84204C11.7512 6.84204 11.9419 6.76302 12.0826 6.62237C12.2232 6.48172 12.3022 6.29095 12.3022 6.09204V3.09204C12.3022 2.89313 12.2232 2.70236 12.0826 2.56171C11.9419 2.42106 11.7512 2.34204 11.5522 2.34204C11.3533 2.34204 11.1626 2.42106 11.0219 2.56171C10.8813 2.70236 10.8022 2.89313 10.8022 3.09204V6.09204C10.8022 6.29095 10.8813 6.48172 11.0219 6.62237C11.1626 6.76302 11.3533 6.84204 11.5522 6.84204ZM14.5522 6.84204C14.7512 6.84204 14.9419 6.76302 15.0826 6.62237C15.2232 6.48172 15.3022 6.29095 15.3022 6.09204V3.09204C15.3022 2.89313 15.2232 2.70236 15.0826 2.56171C14.9419 2.42106 14.7512 2.34204 14.5522 2.34204C14.3533 2.34204 14.1626 2.42106 14.0219 2.56171C13.8813 2.70236 13.8022 2.89313 13.8022 3.09204V6.09204C13.8022 6.29095 13.8813 6.48172 14.0219 6.62237C14.1626 6.76302 14.3533 6.84204 14.5522 6.84204ZM23.5522 12.092V12.842C23.5519 13.796 23.1881 14.714 22.5348 15.4091C21.8815 16.1042 20.9878 16.5242 20.0357 16.5836C19.5241 18.0307 18.6531 19.324 17.5044 20.342H19.8022C20.0012 20.342 20.1919 20.4211 20.3326 20.5617C20.4732 20.7024 20.5522 20.8931 20.5522 21.092C20.5522 21.291 20.4732 21.4817 20.3326 21.6224C20.1919 21.763 20.0012 21.842 19.8022 21.842H3.30225C3.10333 21.842 2.91257 21.763 2.77192 21.6224C2.63126 21.4817 2.55225 21.291 2.55225 21.092C2.55225 20.8931 2.63126 20.7024 2.77192 20.5617C2.91257 20.4211 3.10333 20.342 3.30225 20.342H5.60287C4.64597 19.4966 3.87927 18.4579 3.35341 17.2943C2.82755 16.1308 2.55449 14.8689 2.55225 13.592V9.09204C2.55225 8.89313 2.63126 8.70236 2.77192 8.56171C2.91257 8.42106 3.10333 8.34204 3.30225 8.34204H19.8022C20.7968 8.34204 21.7506 8.73713 22.4539 9.44039C23.1572 10.1437 23.5522 11.0975 23.5522 12.092ZM19.0522 9.84204H4.05225V13.592C4.05514 15.0002 4.4531 16.3794 5.20087 17.5726C5.94865 18.7659 7.01624 19.7254 8.28225 20.342H14.8222C16.0883 19.7254 17.1558 18.7659 17.9036 17.5726C18.6514 16.3794 19.0494 15.0002 19.0522 13.592V9.84204ZM22.0522 12.092C22.0521 11.6269 21.9078 11.1732 21.6392 10.7934C21.3705 10.4136 20.9908 10.1265 20.5522 9.97142V13.592C20.5517 14.063 20.5141 14.5332 20.4397 14.9983C20.9051 14.8608 21.3135 14.5766 21.6041 14.188C21.8947 13.7994 22.0519 13.3273 22.0522 12.842V12.092Z" fill="#42B0D9"/>
</svg>
