<svg width="159" height="159" viewBox="0 0 159 159" fill="none" xmlns="http://www.w3.org/2000/svg">
<path opacity="0.2" d="M119.348 35.2534V124.128H40.3479V35.2534H119.348Z" fill="#42B0D9"/>
<path d="M109.473 10.5659H50.2229C46.2944 10.5659 42.5268 12.1265 39.7489 14.9044C36.971 17.6823 35.4104 21.4499 35.4104 25.3784V134.003C35.4104 137.932 36.971 141.7 39.7489 144.477C42.5268 147.255 46.2944 148.816 50.2229 148.816H109.473C113.401 148.816 117.169 147.255 119.947 144.477C122.725 141.7 124.285 137.932 124.285 134.003V25.3784C124.285 21.4499 122.725 17.6823 119.947 14.9044C117.169 12.1265 113.401 10.5659 109.473 10.5659ZM45.2854 40.1909H114.41V119.191H45.2854V40.1909ZM50.2229 20.4409H109.473C110.782 20.4409 112.038 20.9611 112.964 21.8871C113.89 22.813 114.41 24.0689 114.41 25.3784V30.3159H45.2854V25.3784C45.2854 24.0689 45.8056 22.813 46.7316 21.8871C47.6575 20.9611 48.9134 20.4409 50.2229 20.4409ZM109.473 138.941H50.2229C48.9134 138.941 47.6575 138.421 46.7316 137.495C45.8056 136.569 45.2854 135.313 45.2854 134.003V129.066H114.41V134.003C114.41 135.313 113.89 136.569 112.964 137.495C112.038 138.421 110.782 138.941 109.473 138.941Z" fill="#42B0D9"/>
</svg>
