<svg width="105" height="105" viewBox="0 0 105 105" fill="none" xmlns="http://www.w3.org/2000/svg">
<path opacity="0.2" d="M85.3125 16.4062V68.9062H62.3438C62.3438 68.9062 62.3438 26.25 85.3125 16.4062Z" fill="#42B0D9"/>
<path d="M29.5313 36.0938V16.4063C29.5313 15.536 29.877 14.7014 30.4923 14.0861C31.1077 13.4707 31.9423 13.125 32.8125 13.125C33.6827 13.125 34.5173 13.4707 35.1327 14.0861C35.748 14.7014 36.0938 15.536 36.0938 16.4063V36.0938C36.0938 36.964 35.748 37.7986 35.1327 38.414C34.5173 39.0293 33.6827 39.375 32.8125 39.375C31.9423 39.375 31.1077 39.0293 30.4923 38.414C29.877 37.7986 29.5313 36.964 29.5313 36.0938ZM88.5938 16.4063V91.875C88.5938 92.7453 88.2481 93.5799 87.6327 94.1952C87.0173 94.8106 86.1827 95.1563 85.3125 95.1563C84.4423 95.1563 83.6077 94.8106 82.9923 94.1952C82.377 93.5799 82.0313 92.7453 82.0313 91.875V72.1875H62.3438C61.4735 72.1875 60.6389 71.8418 60.0236 71.2265C59.4082 70.6111 59.0625 69.7765 59.0625 68.9063C59.2149 61.0464 60.2076 53.2253 62.0238 45.5766C66.0352 28.9694 73.6395 17.8377 84.0205 13.3916C84.5195 13.1779 85.0637 13.0913 85.6043 13.1395C86.145 13.1878 86.6652 13.3695 87.1184 13.6682C87.5716 13.967 87.9436 14.3735 88.2011 14.8513C88.4586 15.3292 88.5935 15.8635 88.5938 16.4063ZM82.0313 22.1074C68.8365 32.185 66.2525 56.7328 65.748 65.625H82.0313V22.1074ZM49.1736 15.869C49.1094 15.4381 48.96 15.0244 48.7341 14.6519C48.5083 14.2794 48.2105 13.9556 47.8582 13.6994C47.5059 13.4431 47.1061 13.2596 46.6822 13.1596C46.2582 13.0595 45.8185 13.0448 45.3889 13.1164C44.9592 13.188 44.548 13.3445 44.1794 13.5767C43.8109 13.8088 43.4922 14.1121 43.242 14.4687C42.9919 14.8253 42.8152 15.2282 42.7224 15.6538C42.6296 16.0794 42.6224 16.5193 42.7014 16.9477L45.9375 36.3522C45.9375 39.8331 44.5547 43.1715 42.0933 45.6329C39.6319 48.0944 36.2935 49.4772 32.8125 49.4772C29.3315 49.4772 25.9931 48.0944 23.5317 45.6329C21.0703 43.1715 19.6875 39.8331 19.6875 36.3522L22.9195 16.9477C22.9985 16.5193 22.9913 16.0794 22.8985 15.6538C22.8057 15.2282 22.629 14.8253 22.3789 14.4687C22.1287 14.1121 21.81 13.8088 21.4415 13.5767C21.0729 13.3445 20.6617 13.188 20.232 13.1164C19.8024 13.0448 19.3627 13.0595 18.9387 13.1596C18.5148 13.2596 18.115 13.4431 17.7627 13.6994C17.4104 13.9556 17.1126 14.2794 16.8868 14.6519C16.6609 15.0244 16.5115 15.4381 16.4473 15.869L13.166 35.5565C13.1379 35.7342 13.1242 35.9139 13.125 36.0938C13.1316 40.7442 14.7817 45.2426 17.7838 48.7941C20.786 52.3456 24.9469 54.7217 29.5313 55.5024V91.875C29.5313 92.7453 29.877 93.5799 30.4923 94.1952C31.1077 94.8106 31.9423 95.1563 32.8125 95.1563C33.6827 95.1563 34.5173 94.8106 35.1327 94.1952C35.748 93.5799 36.0938 92.7453 36.0938 91.875V55.5024C40.6781 54.7217 44.839 52.3456 47.8412 48.7941C50.8433 45.2426 52.4934 40.7442 52.5 36.0938C52.4994 35.9137 52.4843 35.7341 52.4549 35.5565L49.1736 15.869Z" fill="#42B0D9"/>
</svg>
