<svg width="124" height="124" viewBox="0 0 124 124" fill="none" xmlns="http://www.w3.org/2000/svg">
<path opacity="0.2" d="M107.723 30.926V73.2073H15.4732V30.926C15.4732 28.8872 16.2832 26.9318 17.7248 25.4901C19.1665 24.0485 21.1219 23.2385 23.1607 23.2385H100.036C102.075 23.2385 104.03 24.0485 105.472 25.4901C106.913 26.9318 107.723 28.8872 107.723 30.926Z" fill="#42B0D9"/>
<path d="M100.036 19.3948H23.1607C20.1024 19.3948 17.1694 20.6097 15.0069 22.7722C12.8444 24.9347 11.6295 27.8677 11.6295 30.926V84.7385C11.6295 87.7968 12.8444 90.7298 15.0069 92.8924C17.1694 95.0549 20.1024 96.2698 23.1607 96.2698H57.7545V103.957H46.2232C45.2038 103.957 44.2261 104.362 43.5053 105.083C42.7844 105.804 42.3795 106.782 42.3795 107.801C42.3795 108.82 42.7844 109.798 43.5053 110.519C44.2261 111.24 45.2038 111.645 46.2232 111.645H76.9732C77.9926 111.645 78.9703 111.24 79.6912 110.519C80.412 109.798 80.817 108.82 80.817 107.801C80.817 106.782 80.412 105.804 79.6912 105.083C78.9703 104.362 77.9926 103.957 76.9732 103.957H65.442V96.2698H100.036C103.094 96.2698 106.027 95.0549 108.19 92.8924C110.352 90.7298 111.567 87.7968 111.567 84.7385V30.926C111.567 27.8677 110.352 24.9347 108.19 22.7722C106.027 20.6097 103.094 19.3948 100.036 19.3948ZM23.1607 27.0823H100.036C101.055 27.0823 102.033 27.4872 102.754 28.2081C103.475 28.9289 103.879 29.9066 103.879 30.926V69.3635H19.317V30.926C19.317 29.9066 19.7219 28.9289 20.4428 28.2081C21.1636 27.4872 22.1413 27.0823 23.1607 27.0823ZM100.036 88.5823H23.1607C22.1413 88.5823 21.1636 88.1773 20.4428 87.4565C19.7219 86.7356 19.317 85.758 19.317 84.7385V77.051H103.879V84.7385C103.879 85.758 103.475 86.7356 102.754 87.4565C102.033 88.1773 101.055 88.5823 100.036 88.5823Z" fill="#42B0D9"/>
</svg>
