<svg width="151" height="151" viewBox="0 0 151 151" fill="none" xmlns="http://www.w3.org/2000/svg">
<path opacity="0.2" d="M136.844 56.625V103.812H113.25V89.6562H37.75V103.812H14.1562V56.625C14.1562 51.4108 18.7334 47.1875 24.3782 47.1875H126.622C132.267 47.1875 136.844 51.4108 136.844 56.625Z" fill="#42B0D9"/>
<path d="M126.622 42.4688H117.969V23.5938C117.969 22.3423 117.472 21.142 116.587 20.2571C115.702 19.3722 114.501 18.875 113.25 18.875H37.75C36.4985 18.875 35.2983 19.3722 34.4133 20.2571C33.5284 21.142 33.0312 22.3423 33.0312 23.5938V42.4688H24.3782C16.1381 42.4688 9.4375 48.8214 9.4375 56.625V103.812C9.4375 105.064 9.93465 106.264 10.8196 107.149C11.7045 108.034 12.9048 108.531 14.1562 108.531H33.0312V127.406C33.0312 128.658 33.5284 129.858 34.4133 130.743C35.2983 131.628 36.4985 132.125 37.75 132.125H113.25C114.501 132.125 115.702 131.628 116.587 130.743C117.472 129.858 117.969 128.658 117.969 127.406V108.531H136.844C138.095 108.531 139.295 108.034 140.18 107.149C141.065 106.264 141.562 105.064 141.562 103.812V56.625C141.562 48.8214 134.862 42.4688 126.622 42.4688ZM42.4688 28.3125H108.531V42.4688H42.4688V28.3125ZM108.531 122.688H42.4688V94.375H108.531V122.688ZM132.125 99.0938H117.969V89.6562C117.969 88.4048 117.472 87.2045 116.587 86.3196C115.702 85.4346 114.501 84.9375 113.25 84.9375H37.75C36.4985 84.9375 35.2983 85.4346 34.4133 86.3196C33.5284 87.2045 33.0312 88.4048 33.0312 89.6562V99.0938H18.875V56.625C18.875 54.0238 21.3464 51.9062 24.3782 51.9062H126.622C129.654 51.9062 132.125 54.0238 132.125 56.625V99.0938ZM117.969 68.4219C117.969 69.8218 117.554 71.1903 116.776 72.3543C115.998 73.5183 114.893 74.4255 113.599 74.9612C112.306 75.4969 110.883 75.6371 109.51 75.364C108.137 75.0909 106.876 74.4168 105.886 73.4269C104.896 72.437 104.222 71.1758 103.949 69.8028C103.675 68.4297 103.816 67.0066 104.351 65.7132C104.887 64.4198 105.794 63.3144 106.958 62.5366C108.122 61.7589 109.491 61.3438 110.891 61.3438C112.768 61.3438 114.568 62.0895 115.896 63.4169C117.223 64.7443 117.969 66.5446 117.969 68.4219Z" fill="#42B0D9"/>
</svg>
