<svg width="73" height="74" viewBox="0 0 73 74" fill="none" xmlns="http://www.w3.org/2000/svg">
<path opacity="0.2" d="M49.976 9.27002H22.976C19.3956 9.27002 15.9618 10.7121 13.4301 13.279C10.8983 15.8459 9.47601 19.3274 9.47601 22.9575V50.3325C9.47601 53.9627 10.8983 57.4441 13.4301 60.011C15.9618 62.5779 19.3956 64.02 22.976 64.02H49.976C53.5564 64.02 56.9902 62.5779 59.522 60.011C62.0537 57.4441 63.476 53.9627 63.476 50.3325V22.9575C63.476 19.3274 62.0537 15.8459 59.522 13.279C56.9902 10.7121 53.5564 9.27002 49.976 9.27002ZM36.476 48.0513C34.251 48.0513 32.0759 47.3823 30.2258 46.129C28.3758 44.8756 26.9339 43.0942 26.0824 41.01C25.2309 38.9258 25.0081 36.6324 25.4422 34.4198C25.8763 32.2072 26.9477 30.1748 28.5211 28.5796C30.0944 26.9844 32.099 25.898 34.2812 25.4579C36.4635 25.0178 38.7255 25.2437 40.7812 26.107C42.8369 26.9703 44.5939 28.4323 45.83 30.308C47.0662 32.1838 47.726 34.3891 47.726 36.645C47.726 39.6701 46.5407 42.5714 44.431 44.7105C42.3212 46.8495 39.4597 48.0513 36.476 48.0513Z" fill="#42B0D9"/>
<path d="M49.976 6.98877H22.976C18.8002 6.9933 14.7967 8.67717 11.844 11.6709C8.89129 14.6647 7.23048 18.7237 7.22601 22.9575V50.3325C7.23048 54.5663 8.89129 58.6254 11.844 61.6191C14.7967 64.6129 18.8002 66.2967 22.976 66.3013H49.976C54.1518 66.2967 58.1553 64.6129 61.108 61.6191C64.0607 58.6254 65.7215 54.5663 65.726 50.3325V22.9575C65.7215 18.7237 64.0607 14.6647 61.108 11.6709C58.1553 8.67717 54.1518 6.9933 49.976 6.98877ZM61.226 50.3325C61.226 53.3576 60.0407 56.2589 57.931 58.398C55.8212 60.537 52.9597 61.7388 49.976 61.7388H22.976C19.9923 61.7388 17.1308 60.537 15.0211 58.398C12.9113 56.2589 11.726 53.3576 11.726 50.3325V22.9575C11.726 19.9324 12.9113 17.0312 15.0211 14.8921C17.1308 12.753 19.9923 11.5513 22.976 11.5513H49.976C52.9597 11.5513 55.8212 12.753 57.931 14.8921C60.0407 17.0312 61.226 19.9324 61.226 22.9575V50.3325ZM36.476 22.9575C33.806 22.9575 31.1959 23.7603 28.9758 25.2643C26.7558 26.7683 25.0254 28.906 24.0036 31.407C22.9819 33.9081 22.7145 36.6602 23.2354 39.3153C23.7563 41.9704 25.0421 44.4093 26.9301 46.3235C28.8181 48.2378 31.2236 49.5414 33.8423 50.0695C36.461 50.5977 39.1754 50.3266 41.6422 49.2906C44.109 48.2546 46.2175 46.5003 47.7009 44.2494C49.1843 41.9985 49.976 39.3522 49.976 36.645C49.9723 33.016 48.5488 29.5368 46.0178 26.9707C43.4869 24.4046 40.0553 22.9613 36.476 22.9575ZM36.476 45.77C34.696 45.77 32.9559 45.2348 31.4759 44.2322C29.9958 43.2295 28.8423 41.8044 28.1611 40.137C27.4799 38.4696 27.3017 36.6349 27.6489 34.8648C27.9962 33.0947 28.8534 31.4688 30.1121 30.1927C31.3707 28.9165 32.9744 28.0474 34.7202 27.6954C36.466 27.3433 38.2756 27.524 39.9202 28.2146C41.5647 28.9053 42.9703 30.0748 43.9592 31.5754C44.9482 33.076 45.476 34.8403 45.476 36.645C45.476 39.0651 44.5278 41.3861 42.84 43.0974C41.1521 44.8086 38.863 45.77 36.476 45.77ZM54.476 21.8169C54.476 22.4937 54.2781 23.1553 53.9072 23.718C53.5364 24.2807 53.0093 24.7193 52.3926 24.9783C51.7759 25.2373 51.0973 25.3051 50.4426 25.173C49.7879 25.041 49.1865 24.7151 48.7145 24.2365C48.2425 23.758 47.9211 23.1482 47.7909 22.4845C47.6606 21.8207 47.7275 21.1327 47.9829 20.5074C48.2384 19.8821 48.6709 19.3477 49.226 18.9717C49.781 18.5957 50.4335 18.395 51.101 18.395C51.9961 18.395 52.8546 18.7555 53.4875 19.3973C54.1204 20.039 54.476 20.9094 54.476 21.8169Z" fill="#42B0D9"/>
</svg>
