<svg width="412" height="351" viewBox="0 0 412 351" fill="none" xmlns="http://www.w3.org/2000/svg">
<path d="M331.551 149.01L221.551 39.3229C217.426 35.2119 211.832 32.9026 206 32.9026C200.168 32.9026 194.574 35.2119 190.449 39.3229L80.4489 149.01C78.3961 151.042 76.7688 153.461 75.6617 156.125C74.5547 158.79 73.9898 161.647 74.0001 164.531V296.156C74.0001 299.065 75.1591 301.855 77.222 303.912C79.2849 305.969 82.0828 307.125 85.0001 307.125H327C329.918 307.125 332.715 305.969 334.778 303.912C336.841 301.855 338 299.065 338 296.156V164.531C338.01 161.647 337.446 158.79 336.339 156.125C335.231 153.461 333.604 151.042 331.551 149.01ZM316 285.187H96.0001V164.531L206 54.8436L316 164.531V285.187Z" fill="#166E8F"/>
<line x1="300.5" y1="135" x2="300.5" y2="52" stroke="#166E8F" stroke-width="13"/>
<path d="M159.25 148.125V161.875C159.25 162.24 159.105 162.589 158.847 162.847C158.589 163.105 158.24 163.25 157.875 163.25H144.125C143.76 163.25 143.411 163.105 143.153 162.847C142.895 162.589 142.75 162.24 142.75 161.875V148.125C142.75 147.76 142.895 147.411 143.153 147.153C143.411 146.895 143.76 146.75 144.125 146.75H157.875C158.24 146.75 158.589 146.895 158.847 147.153C159.105 147.411 159.25 147.76 159.25 148.125Z" fill="white"/>
<path d="M264.25 148.125V161.875C264.25 162.24 264.105 162.589 263.847 162.847C263.589 163.105 263.24 163.25 262.875 163.25H249.125C248.76 163.25 248.411 163.105 248.153 162.847C247.895 162.589 247.75 162.24 247.75 161.875V148.125C247.75 147.76 247.895 147.411 248.153 147.153C248.411 146.895 248.76 146.75 249.125 146.75H262.875C263.24 146.75 263.589 146.895 263.847 147.153C264.105 147.411 264.25 147.76 264.25 148.125Z" fill="white"/>
<path d="M264.25 222.125V235.875C264.25 236.24 264.105 236.589 263.847 236.847C263.589 237.105 263.24 237.25 262.875 237.25H249.125C248.76 237.25 248.411 237.105 248.153 236.847C247.895 236.589 247.75 236.24 247.75 235.875V222.125C247.75 221.76 247.895 221.411 248.153 221.153C248.411 220.895 248.76 220.75 249.125 220.75H262.875C263.24 220.75 263.589 220.895 263.847 221.153C264.105 221.411 264.25 221.76 264.25 222.125Z" fill="#2A98C1"/>
<path d="M264.25 180.125V193.875C264.25 194.24 264.105 194.589 263.847 194.847C263.589 195.105 263.24 195.25 262.875 195.25H249.125C248.76 195.25 248.411 195.105 248.153 194.847C247.895 194.589 247.75 194.24 247.75 193.875V180.125C247.75 179.76 247.895 179.411 248.153 179.153C248.411 178.895 248.76 178.75 249.125 178.75H262.875C263.24 178.75 263.589 178.895 263.847 179.153C264.105 179.411 264.25 179.76 264.25 180.125Z" fill="white"/>
<path d="M264.25 255.125V268.875C264.25 269.24 264.105 269.589 263.847 269.847C263.589 270.105 263.24 270.25 262.875 270.25H249.125C248.76 270.25 248.411 270.105 248.153 269.847C247.895 269.589 247.75 269.24 247.75 268.875V255.125C247.75 254.76 247.895 254.411 248.153 254.153C248.411 253.895 248.76 253.75 249.125 253.75H262.875C263.24 253.75 263.589 253.895 263.847 254.153C264.105 254.411 264.25 254.76 264.25 255.125Z" fill="#16425A"/>
<path d="M283.25 166.125V179.875C283.25 180.24 283.105 180.589 282.847 180.847C282.589 181.105 282.24 181.25 281.875 181.25H268.125C267.76 181.25 267.411 181.105 267.153 180.847C266.895 180.589 266.75 180.24 266.75 179.875V166.125C266.75 165.76 266.895 165.411 267.153 165.153C267.411 164.895 267.76 164.75 268.125 164.75H281.875C282.24 164.75 282.589 164.895 282.847 165.153C283.105 165.411 283.25 165.76 283.25 166.125Z" fill="white"/>
<path d="M283.25 239.125V252.875C283.25 253.24 283.105 253.589 282.847 253.847C282.589 254.105 282.24 254.25 281.875 254.25H268.125C267.76 254.25 267.411 254.105 267.153 253.847C266.895 253.589 266.75 253.24 266.75 252.875V239.125C266.75 238.76 266.895 238.411 267.153 238.153C267.411 237.895 267.76 237.75 268.125 237.75H281.875C282.24 237.75 282.589 237.895 282.847 238.153C283.105 238.411 283.25 238.76 283.25 239.125Z" fill="#076588"/>
<path d="M245.25 166.125V179.875C245.25 180.24 245.105 180.589 244.847 180.847C244.589 181.105 244.24 181.25 243.875 181.25H230.125C229.76 181.25 229.411 181.105 229.153 180.847C228.895 180.589 228.75 180.24 228.75 179.875V166.125C228.75 165.76 228.895 165.411 229.153 165.153C229.411 164.895 229.76 164.75 230.125 164.75H243.875C244.24 164.75 244.589 164.895 244.847 165.153C245.105 165.411 245.25 165.76 245.25 166.125Z" fill="white"/>
<path d="M245.25 239.125V252.875C245.25 253.24 245.105 253.589 244.847 253.847C244.589 254.105 244.24 254.25 243.875 254.25H230.125C229.76 254.25 229.411 254.105 229.153 253.847C228.895 253.589 228.75 253.24 228.75 252.875V239.125C228.75 238.76 228.895 238.411 229.153 238.153C229.411 237.895 229.76 237.75 230.125 237.75H243.875C244.24 237.75 244.589 237.895 244.847 238.153C245.105 238.411 245.25 238.76 245.25 239.125Z" fill="#2A98C1"/>
<path d="M140.25 167.125V180.875C140.25 181.24 140.105 181.589 139.847 181.847C139.589 182.105 139.24 182.25 138.875 182.25H125.125C124.76 182.25 124.411 182.105 124.153 181.847C123.895 181.589 123.75 181.24 123.75 180.875V167.125C123.75 166.76 123.895 166.411 124.153 166.153C124.411 165.895 124.76 165.75 125.125 165.75H138.875C139.24 165.75 139.589 165.895 139.847 166.153C140.105 166.411 140.25 166.76 140.25 167.125Z" fill="white"/>
<path d="M140.25 239.125V252.875C140.25 253.24 140.105 253.589 139.847 253.847C139.589 254.105 139.24 254.25 138.875 254.25H125.125C124.76 254.25 124.411 254.105 124.153 253.847C123.895 253.589 123.75 253.24 123.75 252.875V239.125C123.75 238.76 123.895 238.411 124.153 238.153C124.411 237.895 124.76 237.75 125.125 237.75H138.875C139.24 237.75 139.589 237.895 139.847 238.153C140.105 238.411 140.25 238.76 140.25 239.125Z" fill="#2A98C1"/>
<path d="M178.25 167.125V180.875C178.25 181.24 178.105 181.589 177.847 181.847C177.589 182.105 177.24 182.25 176.875 182.25H163.125C162.76 182.25 162.411 182.105 162.153 181.847C161.895 181.589 161.75 181.24 161.75 180.875V167.125C161.75 166.76 161.895 166.411 162.153 166.153C162.411 165.895 162.76 165.75 163.125 165.75H176.875C177.24 165.75 177.589 165.895 177.847 166.153C178.105 166.411 178.25 166.76 178.25 167.125Z" fill="white"/>
<path d="M178.25 239.125V252.875C178.25 253.24 178.105 253.589 177.847 253.847C177.589 254.105 177.24 254.25 176.875 254.25H163.125C162.76 254.25 162.411 254.105 162.153 253.847C161.895 253.589 161.75 253.24 161.75 252.875V239.125C161.75 238.76 161.895 238.411 162.153 238.153C162.411 237.895 162.76 237.75 163.125 237.75H176.875C177.24 237.75 177.589 237.895 177.847 238.153C178.105 238.411 178.25 238.76 178.25 239.125Z" fill="#076588"/>
<path d="M159.25 180.125V193.875C159.25 194.24 159.105 194.589 158.847 194.847C158.589 195.105 158.24 195.25 157.875 195.25H144.125C143.76 195.25 143.411 195.105 143.153 194.847C142.895 194.589 142.75 194.24 142.75 193.875V180.125C142.75 179.76 142.895 179.411 143.153 179.153C143.411 178.895 143.76 178.75 144.125 178.75H157.875C158.24 178.75 158.589 178.895 158.847 179.153C159.105 179.411 159.25 179.76 159.25 180.125Z" fill="white"/>
<path d="M159.25 255.125V268.875C159.25 269.24 159.105 269.589 158.847 269.847C158.589 270.105 158.24 270.25 157.875 270.25H144.125C143.76 270.25 143.411 270.105 143.153 269.847C142.895 269.589 142.75 269.24 142.75 268.875V255.125C142.75 254.76 142.895 254.411 143.153 254.153C143.411 253.895 143.76 253.75 144.125 253.75H157.875C158.24 253.75 158.589 253.895 158.847 254.153C159.105 254.411 159.25 254.76 159.25 255.125Z" fill="#16425A"/>
<path d="M159.25 223.125V236.875C159.25 237.24 159.105 237.589 158.847 237.847C158.589 238.105 158.24 238.25 157.875 238.25H144.125C143.76 238.25 143.411 238.105 143.153 237.847C142.895 237.589 142.75 237.24 142.75 236.875V223.125C142.75 222.76 142.895 222.411 143.153 222.153C143.411 221.895 143.76 221.75 144.125 221.75H157.875C158.24 221.75 158.589 221.895 158.847 222.153C159.105 222.411 159.25 222.76 159.25 223.125Z" fill="#2A98C1"/>
<ellipse cx="9" cy="257.5" rx="9" ry="8.5" fill="#166E8F"/>
<ellipse cx="403" cy="221.5" rx="9" ry="8.5" fill="#2A98C1"/>
<ellipse cx="9" cy="190.5" rx="9" ry="8.5" fill="#42B0D9"/>
<line x1="403" y1="190.5" x2="346" y2="190.5" stroke="#42B0D9" stroke-width="13"/>
<line x1="66" y1="190.5" x2="9" y2="190.5" stroke="#42B0D9" stroke-width="13"/>
<line x1="66" y1="257.5" x2="9" y2="257.5" stroke="#166E8F" stroke-width="13"/>
<line x1="65" y1="222.5" x2="8" y2="222.5" stroke="#2A98C1" stroke-width="13"/>
<line x1="403" y1="222.5" x2="346" y2="222.5" stroke="#2A98C1" stroke-width="13"/>
<line x1="403" y1="257.5" x2="346" y2="257.5" stroke="#166E8F" stroke-width="13"/>
<line x1="306.057" y1="57.5" x2="269" y2="57.5" stroke="#166E8F" stroke-width="13"/>
<ellipse cx="403" cy="190.5" rx="9" ry="8.5" fill="#42B0D9"/>
<ellipse cx="9" cy="221.5" rx="9" ry="8.5" fill="#2A98C1"/>
<ellipse cx="403" cy="257.5" rx="9" ry="8.5" fill="#166E8F"/>
</svg>
