<svg width="80" height="79" viewBox="0 0 80 79" fill="none" xmlns="http://www.w3.org/2000/svg">
<path opacity="0.2" d="M69.651 37.2571C63.4498 37.2686 57.4028 35.3496 52.3698 31.7727V48.2258C52.3698 53.7208 50.1589 58.9907 46.2236 62.8762C42.2882 66.7617 36.9508 68.9446 31.3854 68.9446C25.82 68.9446 20.4825 66.7617 16.5472 62.8762C12.6118 58.9907 10.401 53.7208 10.401 48.2258C10.401 38.031 17.8597 29.2347 27.6823 27.5071V40.5142C26.2853 41.1684 25.0917 42.1808 24.226 43.4457C23.3604 44.7106 22.8543 46.1816 22.7606 47.7054C22.667 49.2292 22.9891 50.7498 23.6935 52.1088C24.3979 53.4678 25.4587 54.6152 26.7652 55.4315C28.0718 56.2478 29.5763 56.7029 31.1217 56.7495C32.6671 56.7961 34.1969 56.4324 35.5515 55.6964C36.9061 54.9603 38.0358 53.8789 38.8228 52.5649C39.6098 51.2509 40.0254 49.7524 40.026 48.2258V8.00708H52.3698C52.3698 12.5323 54.1904 16.8723 57.4313 20.0721C60.6722 23.2719 65.0677 25.0696 69.651 25.0696V37.2571Z" fill="#42B0D9"/>
<path d="M69.651 22.6321C65.7237 22.628 61.9585 21.0859 59.1815 18.3441C56.4045 15.6022 54.8426 11.8846 54.8385 8.00708C54.8385 7.36061 54.5784 6.74063 54.1154 6.28351C53.6524 5.82639 53.0245 5.56958 52.3698 5.56958H40.026C39.3712 5.56958 38.7433 5.82639 38.2803 6.28351C37.8174 6.74063 37.5573 7.36061 37.5573 8.00708V48.2258C37.5567 49.3163 37.2599 50.3866 36.6977 51.3251C36.1355 52.2637 35.3285 53.0361 34.3609 53.5618C33.3933 54.0875 32.3006 54.3473 31.1967 54.3139C30.0928 54.2806 29.0182 53.9554 28.085 53.3723C27.1517 52.7892 26.3941 51.9695 25.891 50.9988C25.3879 50.0281 25.1579 48.9419 25.2249 47.8534C25.2918 46.765 25.6534 45.7143 26.2718 44.8108C26.8902 43.9074 27.7428 43.1843 28.7407 42.7171C29.1628 42.5193 29.5194 42.2073 29.7691 41.8173C30.0187 41.4274 30.1512 40.9755 30.151 40.5142V27.5071C30.1512 27.1508 30.0722 26.7988 29.9197 26.4759C29.7672 26.1529 29.5448 25.867 29.2682 25.6381C28.9917 25.4092 28.6677 25.2429 28.319 25.151C27.9704 25.0591 27.6055 25.0438 27.2502 25.1061C16.2365 27.044 7.93225 36.9829 7.93225 48.2258C7.93225 54.3672 10.4032 60.2571 14.8015 64.5998C19.1998 68.9424 25.1652 71.3821 31.3854 71.3821C37.6055 71.3821 43.5709 68.9424 47.9692 64.5998C52.3676 60.2571 54.8385 54.3672 54.8385 48.2258V36.1267C59.4108 38.4821 64.4938 39.7064 69.651 39.6946C70.3058 39.6946 70.9337 39.4378 71.3967 38.9807C71.8597 38.5235 72.1198 37.9035 72.1198 37.2571V25.0696C72.1198 24.4231 71.8597 23.8031 71.3967 23.346C70.9337 22.8889 70.3058 22.6321 69.651 22.6321ZM67.1823 34.7099C62.3578 34.2878 57.7382 32.5878 53.8109 29.7892C53.4418 29.5272 53.0065 29.3709 52.5531 29.3375C52.0998 29.3042 51.6459 29.3951 51.2415 29.6002C50.8371 29.8054 50.498 30.1168 50.2614 30.5001C50.0249 30.8834 49.9002 31.3238 49.901 31.7727V48.2258C49.901 53.0743 47.9503 57.7242 44.4779 61.1526C41.0055 64.581 36.296 66.5071 31.3854 66.5071C26.4747 66.5071 21.7652 64.581 18.2929 61.1526C14.8205 57.7242 12.8698 53.0743 12.8698 48.2258C12.8698 40.3344 18.0048 33.2565 25.2135 30.6758V39.1065C23.6176 40.1593 22.3252 41.6024 21.4622 43.2951C20.5993 44.9878 20.1952 46.8724 20.2894 48.7651C20.3836 50.6579 20.9728 52.4943 21.9997 54.0953C23.0266 55.6963 24.4561 57.0073 26.1488 57.9006C27.8416 58.7938 29.7398 59.2389 31.6586 59.1923C33.5773 59.1457 35.4511 58.609 37.0973 57.6347C38.7436 56.6603 40.106 55.2815 41.0519 53.6326C41.9978 51.9836 42.4949 50.1209 42.4948 48.2258V10.4446H50.0553C50.6105 14.7379 52.5935 18.7277 55.6932 21.7882C58.7929 24.8487 62.8339 26.8066 67.1823 27.3547V34.7099Z" fill="#42B0D9"/>
</svg>
